# AST/ASF file generated using VICON BodyLanguage
# -----------------------------------------------
:version 1.10
:name VICON
:units
  mass 1.0
  length 0.45
  angle deg
:documentation
   .ast/.asf automatically generated from VICON data using
   VICON BodyBuilder and BodyLanguage model FoxedUp or BRILLIANT.MOD
:root
   order TX TY TZ RX RY RZ
   axis XYZ
   position 0 0 0  
   orientation 0 -0 0 
:bonedata
  begin
     id 1 
     name lhipjoint
     direction 0.500677 -0.737119 0.453848 
     length 2.34727 
     axis 0 -0 0  XYZ
  end
  begin
     id 2 
     name lfemur
     direction 0.34202 -0.939693 0  
     length 7.53653  
     axis 0 -0 20  XYZ
    dof rx ry rz
    limits (-160.0 20.0)
           (-70.0 70.0)
           (-60.0 70.0)
  end
  begin
     id 3 
     name ltibia
     direction 0.34202 -0.939693 0   
     length 6.85572   
     axis 0 -0 20   XYZ
    dof rx
    limits (-10.0 170.0)
  end
  begin
     id 4 
     name lfoot
     direction 0.155313 -0.426718 0.890949   
     length 2.18324   
     axis -90 -1.13533e-015 20   XYZ
    dof rx rz
    limits (-45.0 90.0)
           (-70.0 20.0)
  end
  begin
     id 5 
     name ltoes
     direction 1.53474e-011 -4.21647e-011 1   
     length 1.06748   
     axis -90 -1.13533e-015 20   XYZ
    dof rx
    limits (-90.0 20.0)
  end
  begin
     id 6 
     name rhipjoint
     direction -0.632471 -0.659587 0.406111   
     length 2.62319  
     axis 0 -0 0  XYZ 
  end
  begin
     id 7 
     name rfemur
     direction -0.34202 -0.939693 0   
     length 7.21735   
     axis 0 -0 -20   XYZ
    dof rx ry rz
    limits (-160.0 20.0)
           (-70.0 70.0)
           (-70.0 60.0)
  end
  begin
     id 8 
     name rtibia
     direction -0.34202 -0.939693 0   
     length 7.02558   
     axis 0 -0 -20   XYZ
    dof rx
    limits (-10.0 170.0)
 end
 begin
     id 9 
     name rfoot
     direction -0.16057 -0.441164 0.882945   
     length 2.10014  
     axis -90 1.13533e-015 -20   XYZ
    dof rx rz
    limits (-45.0 90.0)
           (-20.0 70.0)
  end
  begin
     id 10 
     name rtoes
     direction -1.53553e-011 -4.2192e-011 1   
     length 1.02554   
     axis -90 1.13533e-015 -20   XYZ
    dof rx
    limits (-90.0 20.0)
  end
  begin
     id 11 
     name lowerback
     direction 0.0401429 0.998861 -0.0258085   
     length 1.80848   
     axis 0 -0 0   XYZ
    dof rx ry rz
    limits (-20.0 45.0)
           (-30.0 30.0)
           (-30.0 30.0)
  end
  begin
     id 12 
     name upperback
     direction -0.0130978 0.999914 -0.000352645   
     length 1.8116   
     axis 0 -0 0   XYZ
    dof rx ry rz
    limits (-20.0 45.0)
           (-30.0 30.0)
           (-30.0 30.0)
  end
  begin
     id 13 
     name thorax
     direction -0.0300198 0.999453 0.0138573   
     length 1.81778   
     axis 0 -0 0   XYZ
    dof rx ry rz
    limits (-20.0 45.0)
           (-30.0 30.0)
           (-30.0 30.0)
  end
  begin
     id 14 
     name lowerneck
     direction -0.0401726 0.999191 -0.00173647   
     length 2.10594   
     axis 0 -0 0   XYZ
    dof rx ry rz
    limits (-20.0 45.0)
           (-30.0 30.0)
           (-30.0 30.0)
  end
  begin
     id 15 
     name upperneck
     direction 0.0119835 0.998501 0.0534085   
     length 2.07325   
     axis 0 -0 0   XYZ
    dof rx ry rz
    limits (-20.0 45.0)
           (-30.0 30.0)
           (-30.0 30.0)
  end
  begin
     id 16
     name head
     direction 0.00628309 0.999826 0.0175921  
     length 2.15096  
     axis 0 -0 0   XYZ
    dof rx ry rz
    limits (-20.0 45.0)
           (-30.0 30.0)
           (-30.0 30.0)
  end
  begin
     id 17 
     name lclavicle
     direction 0.895501 0.429681 -0.115981  
     length 4.18092  
     axis 0 -0 0   XYZ
    dof ry rz
    limits (-20.0 10.0)
           (0.0 20.0)
  end
  begin
     id 18 
     name lhumerus
     direction 1 -4.48961e-011 -3.38433e-028   
     length 5.77237   
     axis 180 -30 -90   XYZ
    dof rx ry rz
    limits (-60.0 90.0)
           (-90.0 90.0)
           (-90.0 90.0)
  end
  begin
     id 19
     name lradius
     direction 1 -4.4901e-011 1.11983e-026   
     length 2.91878   
     axis 180 -30 -90   XYZ
    dof rx
    limits (-10.0 170.0)
  end
  begin
     id 20
     name lwrist
     direction 1 -4.48934e-011 1.88176e-026   
     length 1.45939   
     axis -1.23311e-014 90 90   XYZ
    dof ry
    limits (-180.0 0.0)
 end
  begin
     id 21 
     name lhand
     direction 1 -4.4895e-011 3.76352e-026   
     length 1.06566   
     axis -2.40147e-014 90 90   XYZ
    dof rx rz
    limits (-90.0 90.0)
           (-45.0 45.0)
  end
  begin
     id 22 
     name lfingers
     direction 1 -4.49005e-011 7.52705e-026   
     length 0.859162   
     axis -4.80295e-014 90 90   XYZ
    dof rx
    limits (0.0 90.0)
  end
  begin
     id 23
     name lthumb
     direction 0.707107 -6.34885e-011 0.707107   
     length 1.23359   
     axis -90 45 -9.86935e-015   XYZ
    dof rx rz
    limits (-45.0 45.0)
           (-45.0 45.0)
  end
  begin
     id 24 
     name rclavicle
     direction -0.91006 0.40451 -0.0903492   
     length 4.23293  
     axis 0 -0 0   XYZ 
    dof ry rz
    limits (-10.0 20.0)
           (-20.0 0.0)
  end
  begin
     id 25 
     name rhumerus
     direction -1 -4.4897e-011 1.7415e-027  
     length 5.49854   
     axis 180 30 90   XYZ
    dof rx ry rz
    limits (-90.0 60.0)
           (-90.0 90.0)
           (-90.0 90.0)
  end
  begin
     id 26 
     name rradius
     direction -1 -4.48963e-011 1.21259e-026   
     length 3.1186   
     axis 180 30 90   XYZ
    dof rx
    limits (-10.0 170.0)
  end
  begin
     id 27 
     name rwrist
     direction -1 -4.48967e-011 1.88176e-026   
     length 1.5593   
     axis -1.23311e-014 -90 -90   XYZ
    dof ry
    limits (-180.0 0.0)
  end
  begin
     id 28
     name rhand
     direction -1 -4.4895e-011 3.76352e-026   
     length 0.71207   
     axis -2.40147e-014 -90 -90   XYZ
    dof rx rz
    limits (-90.0 90.0)
           (-45.0 45.0)
  end
  begin
     id 29
     name rfingers
     direction -1 -4.49005e-011 7.52705e-026   
     length 0.574089   
     axis -4.80295e-014 -90 -90   XYZ
    dof rx
    limits (0.0 90.0)
  end
  begin
     id 30
     name rthumb
     direction -0.707107 -6.34982e-011 0.707107   
     length 0.824281   
     axis -90 -45 9.86935e-015   XYZ
    dof rx rz
    limits (-45.0 45.0)
           (-45.0 45.0)
  end
:hierarchy
  begin
    root lhipjoint rhipjoint lowerback
    lhipjoint lfemur
    lfemur ltibia
    ltibia lfoot
    lfoot ltoes
    rhipjoint rfemur
    rfemur rtibia
    rtibia rfoot
    rfoot rtoes
    lowerback upperback
    upperback thorax
    thorax lowerneck lclavicle rclavicle
    lowerneck upperneck
    upperneck head
    lclavicle lhumerus
    lhumerus lradius
    lradius lwrist
    lwrist lhand lthumb
    lhand lfingers
    rclavicle rhumerus
    rhumerus rradius
    rradius rwrist
    rwrist rhand rthumb
    rhand rfingers
  end

#!OML:ASF C:\ViconDB\ViconDB\414\Spring2016\042216\male.ASF
:FULLY-SPECIFIED
:DEGREES
374
root 18.8425 17.4667 10.6735 -95.5382 85.265 -96.0359
lowerback -0.617153 -0.864868 10.3967
upperback 0.131996 -1.2067 0.597396
thorax 0.281884 -0.570613 -5.21619
lowerneck -1.08748 10.3738 -0.108668
upperneck -0.0242011 13.8722 -3.27724
head 0.401497 6.93162 -0.861806
rclavicle 1.32673e-014 -7.55382e-015
rhumerus -22.4555 4.93322 -93.3455
rradius 35.6869
rwrist 20.3831
rhand 12.0059 -19.1785
rfingers 7.12502
rthumb 37.0263 -45.2361
lclavicle 1.32673e-014 -7.55382e-015
lhumerus -41.1035 21.6621 79.561
lradius 29.9042
lwrist -19.4704
lhand -4.51215 11.8803
lfingers 7.12502
lthumb 21.2621 40.7341
rfemur 4.28383 1.52591 29.7736
rtibia 9.92922
rfoot -14.0513 -1.55782
rtoes -9.43394
lfemur -27.9123 -3.46019 -13.4547
ltibia 34.4168
lfoot -19.9892 15.1406
ltoes -8.85545
375
root 19.0354 17.4725 10.6691 -90.0256 85.0962 -90.7673
lowerback -0.859445 -0.665482 10.7357
upperback 0.0707492 -0.969904 0.586995
thorax 0.388247 -0.448224 -5.41954
lowerneck -1.005 10.5727 0.183831
upperneck -0.0697715 14.1377 -3.6147
head 0.425749 7.06506 -1.00624
rclavicle 1.69324e-014 -1.53064e-014
rhumerus -22.2982 5.92992 -93.6462
rradius 36.2917
rwrist 18.9685
rhand 11.799 -19.583
rfingers 7.12502
rthumb 36.8306 -45.6911
lclavicle 1.69324e-014 -1.53064e-014
lhumerus -41.379 21.8444 79.3821
lradius 29.9019
lwrist -18.9408
lhand -4.53663 12.1043
lfingers 7.12502
lthumb 21.2386 40.9607
rfemur 6.41087 1.92673 29.9892
rtibia 6.50549
rfoot -12.8842 -1.55226
rtoes -9.65867
lfemur -28.4348 -4.06476 -13.0496
ltibia 31.3833
lfoot -19.7161 15.3692
ltoes -8.21234
376
root 19.2288 17.4702 10.6711 -85.4663 84.8925 -86.4345
lowerback -1.06827 -0.518716 10.9388
upperback -0.0187805 -0.797171 0.580773
thorax 0.439213 -0.362125 -5.54071
lowerneck -0.909537 10.6841 0.219074
upperneck -0.125649 14.2837 -3.64329
head 0.400683 7.13957 -1.02541
rclavicle -3.1029e-015 3.58806e-014
rhumerus -22.3354 6.11641 -93.9508
rradius 37.0018
rwrist 18.773
rhand 11.7319 -19.1795
rfingers 7.12502
rthumb 36.7671 -45.3039
lclavicle -3.1029e-015 3.58806e-014
lhumerus -41.7897 22.3205 78.8515
lradius 29.8133
lwrist -19.195
lhand -4.32026 12.081
lfingers 7.12502
lthumb 21.4464 40.9139
rfemur 10.0746 2.26861 30.2592
rtibia -1.43125e-014
rfoot -10.0693 -1.38066
rtoes -9.32663
lfemur -29.0331 -4.27265 -12.6775
ltibia 28.8381
lfoot -20.0543 15.0028
ltoes -6.74164
377
root 19.4275 17.4627 10.6689 -81.5562 84.5382 -82.7385
lowerback -1.36182 -0.335194 11.379
upperback -0.0431351 -0.594403 0.594053
thorax 0.610709 -0.250717 -5.77392
lowerneck -0.96563 10.8206 0.300723
upperneck -0.043649 14.4687 -3.68781
head 0.448346 7.23015 -1.04142
rclavicle -3.04389e-015 -2.55438e-014
rhumerus -22.2708 6.05317 -94.1338
rradius 37.7188
rwrist 19.0952
rhand 12.34 -19.0661
rfingers 7.12502
rthumb 37.3423 -45.0413
lclavicle -3.04389e-015 -2.55438e-014
lhumerus -42.0578 22.9356 78.3913
lradius 29.6761
lwrist -19.2186
lhand -4.21705 12.2078
lfingers 7.12502
lthumb 21.5455 41.0293
rfemur 10.5547 2.60584 30.6306
rtibia -5.88403e-014
rfoot -10.4575 -1.43266
rtoes -9.55537
lfemur -29.7865 -4.2916 -12.2362
ltibia 26.91
lfoot -20.9145 14.6987
ltoes -6.42993
378
root 19.6238 17.4592 10.6683 -78.2441 84.2056 -79.685
lowerback -1.68625 -0.188754 11.6985
upperback -0.0775802 -0.445557 0.615311
thorax 0.782639 -0.166527 -5.93038
lowerneck -1.01197 10.9021 0.252988
upperneck -0.0775858 14.5765 -3.65714
head 0.441535 7.28406 -1.02232
rclavicle 4.36627e-015 -6.06293e-015
rhumerus -22.138 7.33279 -94.4985
rradius 38.1548
rwrist 17.1529
rhand 11.8165 -19.693
rfingers 7.12502
rthumb 36.8472 -45.7968
lclavicle 4.36627e-015 -6.06293e-015
lhumerus -42.375 23.3743 77.9615
lradius 29.7406
lwrist -19.179
lhand -3.92502 12.3337
lfingers 7.12502
lthumb 21.826 41.1229
rfemur 10.9996 2.92652 30.9641
rtibia -9.54166e-015
rfoot -10.9233 -1.49905
rtoes -9.71112
lfemur -30.7526 -3.89028 -12.0626
ltibia 25.7311
lfoot -21.9643 14.3923
ltoes -6.05652
379
root 19.8245 17.4544 10.6736 -75.3752 83.9634 -77.1172
lowerback -2.08899 -0.0444077 11.8087
upperback -0.161423 -0.305269 0.629028
thorax 0.947584 -0.0899025 -5.97656
lowerneck -1.03886 10.976 0.396641
upperneck 0.0546983 14.6788 -3.71408
head 0.504293 7.33281 -1.05185
rclavicle 6.81536e-015 1.43125e-014
rhumerus -22.1017 7.65604 -94.6968
rradius 38.5721
rwrist 17.2158
rhand 12.548 -19.454
rfingers 7.12502
rthumb 37.5389 -45.3772
lclavicle 6.81536e-015 1.43125e-014
lhumerus -42.6224 23.4194 77.8252
lradius 29.823
lwrist -18.3069
lhand -3.94597 12.6071
lfingers 7.12502
lthumb 21.8058 41.3987
rfemur 11.419 3.21703 31.187
rtibia 5.725e-014
rfoot -11.3499 -1.53159
rtoes -9.78301
lfemur -31.8247 -2.6049 -12.3612
ltibia 25.0905
lfoot -23.3225 13.1242
ltoes -6.6356
380
root 20.0209 17.4254 10.6671 -72.5612 83.3627 -74.3557
lowerback -2.0871 0.0923599 12.4687
upperback -0.212281 -0.131322 0.643813
thorax 0.92437 -0.00268109 -6.3258
lowerneck -0.888567 10.9928 0.487128
upperneck -0.084253 14.6953 -3.77246
head 0.448755 7.34406 -1.09612
rclavicle -3.01167e-015 1.98785e-016
rhumerus -22.0577 8.76864 -95.0986
rradius 38.8317
rwrist 16.409
rhand 12.5154 -19.4679
rfingers 7.12502
rthumb 37.508 -45.3994
lclavicle -3.01167e-015 1.98785e-016
lhumerus -42.9699 23.8425 77.4457
lradius 29.8226
lwrist -17.8003
lhand -4.39758 12.6636
lfingers 7.12502
lthumb 21.3721 41.505
rfemur 12.0623 3.58876 31.8621
rtibia -2.22639e-014
rfoot -11.6431 -1.91605
rtoes -11.011
lfemur -32.5849 -1.80271 -12.1052
ltibia 24.7952
lfoot -24.7274 12.2609
ltoes -7.61059
381
root 20.2187 17.419 10.6736 -71.7097 82.9221 -73.7097
lowerback -2.34359 0.095399 12.658
upperback -0.277237 -0.162342 0.760731
thorax 0.993701 -0.014551 -6.3093
lowerneck -0.82716 11.1126 0.857214
upperneck -0.020861 14.8597 -4.12204
head 0.519147 7.42541 -1.25181
rclavicle 1.94126e-016 -2.00773e-014
rhumerus -22.0622 9.08641 -95.4471
rradius 39.0706
rwrist 16.1956
rhand 12.1003 -19.5336
rfingers 7.12502
rthumb 37.1156 -45.5681
lclavicle 1.94126e-016 -2.00773e-014
lhumerus -43.3362 24.271 76.9989
lradius 29.8461
lwrist -17.4722
lhand -4.22861 12.522
lfingers 7.12502
lthumb 21.5344 41.3449
rfemur 12.5879 3.75959 32.2921
rtibia 6.04305e-014
rfoot -12.0408 -1.77307
rtoes -10.1548
lfemur -33.3502 -1.06891 -12.0148
ltibia 24.7261
lfoot -25.7283 11.3876
ltoes -8.21082
